Coordinates
version=1
nRows=11
nColumns=40
inDegrees=yes

Units are S.I. units (second, meters, Newtons, ...)
Angles are in degrees.

endheader
time	pelvis_tilt	pelvis_list	pelvis_rotation	pelvis_tx	pelvis_ty	pelvis_tz	hip_flexion_r	hip_adduction_r	hip_rotation_r	knee_angle_r	knee_angle_r_beta	ankle_angle_r	subtalar_angle_r	mtp_angle_r	hip_flexion_l	hip_adduction_l	hip_rotation_l	knee_angle_l	knee_angle_l_beta	ankle_angle_l	subtalar_angle_l	mtp_angle_l	lumbar_extension	lumbar_bending	lumbar_rotation	arm_flex_r	arm_add_r	arm_rot_r	elbow_flex_r	pro_sup_r	wrist_flex_r	wrist_dev_r	arm_flex_l	arm_add_l	arm_rot_l	elbow_flex_l	pro_sup_l	wrist_flex_l	wrist_dev_l
      0.54000000	     -3.76372727	     -3.20272846	     -2.22817570	      0.73160690	      0.93024529	      0.42632644	     28.09527836	     -5.98662140	     -7.04575569	     64.84673373	     64.84673373	      3.33607802	    -18.79067212	      8.96914887	     15.53161261	     -2.13876160	     -5.67249131	     22.21231179	     22.21231179	     12.73405620	    -13.28689328	      0.11991172	     -9.50561445	      5.28144137	      1.48236763	      1.49552344	    -12.06162981	     -5.24291652	     33.13474409	     45.85953207	      0.00000000	      0.00000000	     11.97239010	    -16.51066751	     -2.57389476	     56.18413625	     46.38479686	      0.00000000	      0.00000000
      0.55364286	     -3.86610099	     -3.38732179	     -2.61071471	      0.73050946	      0.93077093	      0.42634442	     29.10486971	     -5.47740471	     -6.96195904	     62.93350279	     62.93350279	      3.51578634	    -18.57117288	      8.77876268	     14.94255858	     -2.33834826	     -5.90240932	     21.80565044	     21.80565044	     12.94862052	    -13.30509882	      0.13996095	     -9.57179837	      5.53578380	      1.57220800	     -0.06048858	    -12.14999873	     -5.24589061	     32.05637844	     45.89455813	      0.00000000	      0.00000000	     13.12296195	    -16.75942569	     -2.89959779	     57.39218462	     46.44160537	      0.00000000	      0.00000000
      0.56728571	     -3.93207251	     -3.53204773	     -2.97716405	      0.72944647	      0.93123742	      0.42629608	     29.93023462	     -4.99752100	     -6.88252158	     60.76186213	     60.76186213	      3.64986828	    -18.29963134	      8.52833586	     14.32939913	     -2.50020981	     -6.19954506	     21.43452304	     21.43452304	     13.16053014	    -13.22154644	      0.12252094	     -9.64832857	      5.80956814	      1.55215914	     -1.52233088	    -12.20842040	     -5.30987640	     31.05848017	     45.93092983	      0.00000000	      0.00000000	     14.18686793	    -17.17865742	     -3.26662434	     58.67646099	     46.50048987	      0.00000000	      0.00000000
      0.58092857	     -3.92873688	     -3.64018449	     -3.39260145	      0.72846207	      0.93168453	      0.42640184	     30.49465979	     -4.54564839	     -6.81289836	     58.24676857	     58.24676857	      3.35961072	    -18.02316655	      7.07612056	     13.62001026	     -2.65213549	     -6.69524305	     21.03818914	     21.03818914	     13.41493727	    -12.96749537	     -0.09570256	     -9.89249730	      5.89090272	      1.78991178	     -2.71616162	    -12.21295697	     -5.80013108	     29.11029228	     46.04638239	      0.00000000	      0.00000000	     14.89761686	    -17.40107741	     -3.89202517	     61.61270485	     46.61246645	      0.00000000	      0.00000000
      0.59457143	     -3.97652666	     -3.84221841	     -3.73557926	      0.72745424	      0.93202047	      0.42646389	     30.86312240	     -4.03826380	     -6.90485260	     55.26925781	     55.26925781	      2.59921424	    -17.73510348	      4.24087943	     12.99562970	     -2.87345205	     -6.99110391	     20.66639382	     20.66639382	     13.58670765	    -12.85450429	     -0.37140711	    -10.06394076	      6.15764311	      0.96873758	     -2.96222071	    -12.02432186	     -7.13150855	     26.64510957	     46.26918351	      0.00000000	      0.00000000	     14.78322175	    -18.19707113	     -5.15251230	     64.56832310	     46.79170723	      0.00000000	      0.00000000
      0.60821429	     -4.05714208	     -3.95931546	     -4.06925148	      0.72645246	      0.93225503	      0.42661046	     31.17172948	     -3.59758018	     -7.00655276	     52.06549827	     52.06549827	      2.15160226	    -17.25008146	      2.56372435	     12.39933941	     -2.99660519	     -7.25461342	     20.26868752	     20.26868752	     13.79809730	    -12.68713278	     -0.49433996	    -10.12692213	      6.31609435	      0.84063123	     -3.83739336	    -11.96452577	     -8.32108381	     25.10070889	     46.44549965	      0.00000000	      0.00000000	     15.55154215	    -18.43685789	     -6.06290499	     66.22561259	     46.93562244	      0.00000000	      0.00000000
      0.62185714	     -4.15262356	     -4.10899036	     -4.39498876	      0.72546672	      0.93238636	      0.42684739	     31.38583836	     -3.12732098	     -7.17386507	     48.66365325	     48.66365325	      2.37649818	    -16.23172891	      2.59056238	     11.86250361	     -3.15174780	     -7.49358019	     19.94660115	     19.94660115	     14.03885149	    -12.64527737	     -0.51557971	    -10.18061633	      6.54168948	      0.78615924	     -5.00539047	    -12.17602951	     -8.46401695	     24.52482623	     46.47497234	      0.00000000	      0.00000000	     16.52091262	    -18.77723462	     -6.35486412	     67.19315595	     46.98209790	      0.00000000	      0.00000000
      0.63550000	     -4.22580147	     -4.15557665	     -4.74709127	      0.72456454	      0.93236879	      0.42719097	     31.42770586	     -2.77748182	     -7.38767073	     44.95106679	     44.95106679	      2.48143915	    -14.92808413	      1.82894460	     11.28325202	     -3.21727234	     -7.88205705	     19.59980975	     19.59980975	     14.28667046	    -12.44762885	     -0.64368927	    -10.27484687	      6.61336108	      0.93986078	     -6.16600381	    -12.28893633	     -8.78279237	     23.86223560	     46.52704497	      0.00000000	      0.00000000	     17.45979246	    -19.01512038	     -6.74628780	     68.84448960	     47.05170696	      0.00000000	      0.00000000
      0.64914286	     -4.39633790	     -4.25855215	     -5.04184451	      0.72365704	      0.93219446	      0.42760138	     31.36175561	     -2.39077642	     -7.82998722	     40.86326457	     40.86326457	      2.64634960	    -13.26725803	      1.42740504	     10.85368138	     -3.34062930	     -8.11735056	     19.31629521	     19.31629521	     14.51650146	    -12.33395064	     -0.75800722	    -10.24722248	      6.77166292	      0.83302574	     -7.11411583	    -12.46836007	     -9.00030046	     23.45894069	     46.55889744	      0.00000000	      0.00000000	     18.18202237	    -19.36843232	     -7.05466170	     69.90687961	     47.09972363	      0.00000000	      0.00000000
      0.66278571	     -4.59850875	     -4.30294559	     -5.34544435	      0.72290086	      0.93185512	      0.42817945	     31.16867050	     -2.02128871	     -8.31556840	     36.51590971	     36.51590971	      2.84609808	    -11.28242552	      1.06002277	     10.42523476	     -3.41302244	     -8.40012034	     18.99099493	     18.99099493	     14.74700875	    -12.18751135	     -0.89314244	    -10.13428992	      6.84352460	      0.79102606	     -8.03161573	    -12.58949981	     -9.18879755	     23.12832863	     46.58461945	      0.00000000	      0.00000000	     18.91244951	    -19.66260388	     -7.35127646	     71.00135606	     47.14675077	      0.00000000	      0.00000000
      0.67642857	     -4.64462036	     -4.29881980	     -5.61148885	      0.72238762	      0.93157992	      0.42880730	     30.59972827	     -1.74692242	     -9.04803924	     31.91994575	     31.91994575	      3.03656915	     -8.67591852	      0.31903536	      9.81676482	     -3.42509263	     -8.69464207	     18.66847383	     18.66847383	     14.97635326	    -11.88814991	     -1.13242126	    -10.25536217	      6.82048159	      0.83010576	     -8.93466498	    -12.78491314	     -9.46819918	     22.89723042	     46.61552999	      0.00000000	      0.00000000	     19.54358330	    -19.82536961	     -7.67596642	     72.35305522	     47.20129727	      0.00000000	      0.00000000
